# xmcd CD database file
#
# Track frame offsets:
#	150
#	21292
#	48733
#	69882
#
# Disc length: 1296 seconds
#
# Revision: 1
# Processed by: cddbd v1.5.2PL0 Copyright (c) Steve Scherf et al.
# Submitted via: CDex 1.70beta2
#
DISCID=2f050e04
DTITLE=桃井はるこ - ルミカ
DYEAR=2007
DGENRE=Pop
TTITLE0=ルミカ
TTITLE1=Chuo Line
TTITLE2=ルミカ (カラオケ)
TTITLE3=Chuo Line (カラオケ)
EXTD=YEAR: 2007
EXTT0=
EXTT1=
EXTT2=
EXTT3=
PLAYORDER=
